<svg width="26" height="25" viewBox="0 0 26 25" fill="none" xmlns="http://www.w3.org/2000/svg">
<path d="M13.0028 6.09176C9.45566 6.09176 6.59453 8.95289 6.59453 12.5C6.59453 16.0471 9.45566 18.9083 13.0028 18.9083C16.5499 18.9083 19.411 16.0471 19.411 12.5C19.411 8.95289 16.5499 6.09176 13.0028 6.09176ZM13.0028 16.6662C10.7105 16.6662 8.83659 14.7978 8.83659 12.5C8.83659 10.2022 10.705 8.33382 13.0028 8.33382C15.3006 8.33382 17.169 10.2022 17.169 12.5C17.169 14.7978 15.295 16.6662 13.0028 16.6662ZM21.1679 5.82963C21.1679 6.66064 20.4986 7.32434 19.6732 7.32434C18.8422 7.32434 18.1785 6.65507 18.1785 5.82963C18.1785 5.0042 18.8477 4.33493 19.6732 4.33493C20.4986 4.33493 21.1679 5.0042 21.1679 5.82963ZM25.4122 7.34664C25.3173 5.34441 24.86 3.57085 23.3932 2.10961C21.932 0.648373 20.1584 0.19104 18.1562 0.0906492C16.0926 -0.0264729 9.90742 -0.0264729 7.84384 0.0906492C5.84718 0.185462 4.07362 0.642796 2.6068 2.10403C1.13999 3.56527 0.688232 5.33884 0.587842 7.34107C0.470719 9.40465 0.470719 15.5898 0.587842 17.6534C0.682655 19.6556 1.13999 21.4292 2.6068 22.8904C4.07362 24.3517 5.84161 24.809 7.84384 24.9094C9.90742 25.0265 16.0926 25.0265 18.1562 24.9094C20.1584 24.8146 21.932 24.3572 23.3932 22.8904C24.8544 21.4292 25.3118 19.6556 25.4122 17.6534C25.5293 15.5898 25.5293 9.41022 25.4122 7.34664ZM22.7462 19.8676C22.3112 20.9607 21.469 21.8029 20.3703 22.2435C18.725 22.896 14.821 22.7454 13.0028 22.7454C11.1846 22.7454 7.27496 22.8904 5.63525 22.2435C4.54211 21.8084 3.69994 20.9663 3.25934 19.8676C2.6068 18.2223 2.75739 14.3182 2.75739 12.5C2.75739 10.6818 2.61238 6.77219 3.25934 5.13248C3.69437 4.03934 4.53653 3.19717 5.63525 2.75657C7.28054 2.10403 11.1846 2.25462 13.0028 2.25462C14.821 2.25462 18.7306 2.10961 20.3703 2.75657C21.4635 3.1916 22.3056 4.03376 22.7462 5.13248C23.3988 6.77777 23.2482 10.6818 23.2482 12.5C23.2482 14.3182 23.3988 18.2278 22.7462 19.8676Z" fill="#111111"/>
</svg>
