<svg width="26" height="25" viewBox="0 0 26 25" fill="none" xmlns="http://www.w3.org/2000/svg">
<path d="M7.54587 24.9903C9.59825 25.0676 11.6436 24.6811 13.561 23.8535C15.4784 23.026 17.2289 21.7742 18.7092 20.1722C20.1894 18.5702 21.3694 16.6505 22.1792 14.5265C22.9891 12.4025 23.4124 10.1174 23.4243 7.80612C24.3648 6.49607 25.0632 4.98764 25.4785 3.36946C25.5095 3.24162 25.507 3.10641 25.4713 2.98012C25.4356 2.85384 25.3682 2.74186 25.2773 2.65767C25.1863 2.57348 25.0757 2.52068 24.9587 2.50561C24.8418 2.49054 24.7234 2.51385 24.6179 2.57274C24.1259 2.83934 23.5719 2.92545 23.034 2.81895C22.4962 2.71246 22.0016 2.41871 21.6199 1.97911C21.1327 1.37856 20.5433 0.894205 19.8867 0.554734C19.2301 0.215263 18.5196 0.0275839 17.7974 0.00281845C17.0751 -0.021947 16.3558 0.116705 15.6821 0.410558C15.0083 0.704411 14.3938 1.14749 13.875 1.71353C13.1646 2.48785 12.6443 3.45584 12.3646 4.52342C12.085 5.59101 12.0554 6.72187 12.2789 7.80612C7.62915 8.11856 4.43681 5.63466 1.88295 2.22906C1.80622 2.13127 1.70586 2.06074 1.59411 2.02608C1.48237 1.99142 1.36407 1.99414 1.25367 2.03391C1.14328 2.07367 1.04556 2.14875 0.972445 2.24999C0.899333 2.35122 0.853995 2.47423 0.841967 2.60399C0.355441 5.64157 0.706403 8.77397 1.84772 11.5805C2.98903 14.387 4.86604 16.7333 7.22664 18.3041C5.64384 20.3472 3.42111 21.6233 1.0224 21.8659C0.893894 21.8899 0.775264 21.9585 0.683116 22.0622C0.590968 22.1658 0.529914 22.2993 0.508499 22.4439C0.487083 22.5885 0.506379 22.737 0.563684 22.8687C0.620989 23.0004 0.713437 23.1086 0.828088 23.1782C2.91493 24.352 5.21301 24.9719 7.54587 24.9903Z" fill="#111111"/>
</svg>
