<svg width="26" height="25" viewBox="0 0 26 25" fill="none" xmlns="http://www.w3.org/2000/svg">
<path d="M13.0028 6.09173C9.45566 6.09173 6.59453 8.95286 6.59453 12.5C6.59453 16.0471 9.45566 18.9082 13.0028 18.9082C16.5499 18.9082 19.411 16.0471 19.411 12.5C19.411 8.95286 16.5499 6.09173 13.0028 6.09173ZM13.0028 16.6662C10.7105 16.6662 8.83659 14.7978 8.83659 12.5C8.83659 10.2022 10.705 8.33379 13.0028 8.33379C15.3006 8.33379 17.169 10.2022 17.169 12.5C17.169 14.7978 15.295 16.6662 13.0028 16.6662ZM21.1679 5.8296C21.1679 6.66061 20.4986 7.32431 19.6732 7.32431C18.8422 7.32431 18.1785 6.65504 18.1785 5.8296C18.1785 5.00417 18.8477 4.3349 19.6732 4.3349C20.4986 4.3349 21.1679 5.00417 21.1679 5.8296ZM25.4122 7.34661C25.3173 5.34438 24.86 3.57082 23.3932 2.10958C21.932 0.648343 20.1584 0.191009 18.1562 0.0906187C16.0926 -0.0265034 9.90742 -0.0265034 7.84384 0.0906187C5.84718 0.185432 4.07362 0.642766 2.6068 2.104C1.13999 3.56524 0.688232 5.33881 0.587842 7.34104C0.470719 9.40462 0.470719 15.5898 0.587842 17.6534C0.682655 19.6556 1.13999 21.4292 2.6068 22.8904C4.07362 24.3516 5.84161 24.809 7.84384 24.9094C9.90742 25.0265 16.0926 25.0265 18.1562 24.9094C20.1584 24.8145 21.932 24.3572 23.3932 22.8904C24.8544 21.4292 25.3118 19.6556 25.4122 17.6534C25.5293 15.5898 25.5293 9.41019 25.4122 7.34661ZM22.7462 19.8675C22.3112 20.9607 21.469 21.8028 20.3703 22.2434C18.725 22.896 14.821 22.7454 13.0028 22.7454C11.1846 22.7454 7.27496 22.8904 5.63525 22.2434C4.54211 21.8084 3.69994 20.9662 3.25934 19.8675C2.6068 18.2222 2.75739 14.3182 2.75739 12.5C2.75739 10.6818 2.61238 6.77216 3.25934 5.13245C3.69437 4.03931 4.53653 3.19714 5.63525 2.75654C7.28054 2.104 11.1846 2.25459 13.0028 2.25459C14.821 2.25459 18.7306 2.10958 20.3703 2.75654C21.4635 3.19157 22.3056 4.03373 22.7462 5.13245C23.3988 6.77773 23.2482 10.6818 23.2482 12.5C23.2482 14.3182 23.3988 18.2278 22.7462 19.8675Z" fill="#111111"/>
</svg>
