<svg width="25" height="25" viewBox="0 0 25 25" fill="none" xmlns="http://www.w3.org/2000/svg">
<path d="M7.04587 24.9903C9.09825 25.0676 11.1436 24.6811 13.061 23.8535C14.9784 23.026 16.7289 21.7742 18.2092 20.1722C19.6894 18.5702 20.8694 16.6505 21.6792 14.5265C22.4891 12.4025 22.9124 10.1174 22.9243 7.80612C23.8648 6.49607 24.5632 4.98764 24.9785 3.36946C25.0095 3.24162 25.007 3.10641 24.9713 2.98012C24.9356 2.85384 24.8682 2.74186 24.7773 2.65767C24.6863 2.57348 24.5757 2.52068 24.4587 2.50561C24.3418 2.49054 24.2234 2.51385 24.1179 2.57274C23.6259 2.83934 23.0719 2.92545 22.534 2.81895C21.9962 2.71246 21.5016 2.41871 21.1199 1.97911C20.6327 1.37856 20.0433 0.894205 19.3867 0.554734C18.7301 0.215263 18.0196 0.0275839 17.2974 0.00281845C16.5751 -0.021947 15.8558 0.116705 15.1821 0.410558C14.5083 0.704411 13.8938 1.14749 13.375 1.71353C12.6646 2.48785 12.1443 3.45584 11.8646 4.52342C11.585 5.59101 11.5554 6.72187 11.7789 7.80612C7.12915 8.11856 3.93681 5.63466 1.38295 2.22906C1.30622 2.13127 1.20586 2.06074 1.09411 2.02608C0.982366 1.99142 0.864071 1.99414 0.753674 2.03391C0.643278 2.07367 0.545557 2.14875 0.472445 2.24999C0.399333 2.35122 0.353995 2.47423 0.341967 2.60399C-0.144559 5.64157 0.206403 8.77397 1.34772 11.5805C2.48903 14.387 4.36604 16.7333 6.72664 18.3041C5.14384 20.3472 2.92111 21.6233 0.522404 21.8659C0.393894 21.8899 0.275264 21.9585 0.183116 22.0622C0.090968 22.1658 0.0299141 22.2993 0.00849876 22.4439C-0.0129166 22.5885 0.00637867 22.737 0.063684 22.8687C0.120989 23.0004 0.213437 23.1086 0.328088 23.1782C2.41493 24.352 4.71301 24.9719 7.04587 24.9903Z" fill="#5D5FEF"/>
</svg>
