<svg width="25" height="25" viewBox="0 0 25 25" fill="none" xmlns="http://www.w3.org/2000/svg">
<path d="M12.5028 6.09176C8.95566 6.09176 6.09453 8.95289 6.09453 12.5C6.09453 16.0471 8.95566 18.9083 12.5028 18.9083C16.0499 18.9083 18.911 16.0471 18.911 12.5C18.911 8.95289 16.0499 6.09176 12.5028 6.09176ZM12.5028 16.6662C10.2105 16.6662 8.33659 14.7978 8.33659 12.5C8.33659 10.2022 10.205 8.33382 12.5028 8.33382C14.8006 8.33382 16.669 10.2022 16.669 12.5C16.669 14.7978 14.795 16.6662 12.5028 16.6662V16.6662ZM20.6679 5.82963C20.6679 6.66064 19.9986 7.32434 19.1732 7.32434C18.3422 7.32434 17.6785 6.65507 17.6785 5.82963C17.6785 5.0042 18.3477 4.33493 19.1732 4.33493C19.9986 4.33493 20.6679 5.0042 20.6679 5.82963ZM24.9122 7.34664C24.8173 5.34441 24.36 3.57085 22.8932 2.10961C21.432 0.648374 19.6584 0.19104 17.6562 0.0906492C15.5926 -0.0264729 9.40742 -0.0264729 7.34384 0.0906492C5.34718 0.185462 3.57362 0.642796 2.1068 2.10403C0.639989 3.56527 0.188232 5.33884 0.0878416 7.34107C-0.0292805 9.40465 -0.0292805 15.5898 0.0878416 17.6534C0.182655 19.6556 0.639989 21.4292 2.1068 22.8904C3.57362 24.3517 5.34161 24.809 7.34384 24.9094C9.40742 25.0265 15.5926 25.0265 17.6562 24.9094C19.6584 24.8146 21.432 24.3572 22.8932 22.8904C24.3544 21.4292 24.8118 19.6556 24.9122 17.6534C25.0293 15.5898 25.0293 9.41023 24.9122 7.34664V7.34664ZM22.2462 19.8676C21.8112 20.9607 20.969 21.8029 19.8703 22.2435C18.225 22.896 14.321 22.7454 12.5028 22.7454C10.6846 22.7454 6.77496 22.8904 5.13525 22.2435C4.04211 21.8084 3.19994 20.9663 2.75934 19.8676C2.1068 18.2223 2.25739 14.3182 2.25739 12.5C2.25739 10.6818 2.11238 6.77219 2.75934 5.13248C3.19437 4.03934 4.03653 3.19717 5.13525 2.75657C6.78054 2.10403 10.6846 2.25462 12.5028 2.25462C14.321 2.25462 18.2306 2.10961 19.8703 2.75657C20.9635 3.1916 21.8056 4.03376 22.2462 5.13248C22.8988 6.77777 22.7482 10.6818 22.7482 12.5C22.7482 14.3182 22.8988 18.2278 22.2462 19.8676Z" fill="#5D5FEF"></path>
</svg>
